<?xml version="1.0" encoding="UTF-8" standalone="no"?>
<!-- Created with Inkscape (http://www.inkscape.org/) -->

<svg
   width="210mm"
   height="297mm"
   viewBox="0 0 210 297"
   version="1.1"
   id="svg1"
   xmlns="http://www.w3.org/2000/svg"
   xmlns:svg="http://www.w3.org/2000/svg">
  <defs
     id="defs1" />
  <g
     id="layer1">
    <path
       style="fill:none;stroke-width:0"
       id="path1"
       d="m 112.78481,125.13744 a 41.085896,3.2224231 0 0 1 -25.654966,2.98652 41.085896,3.2224231 0 0 1 -44.92581,-0.74318 41.085896,3.2224231 0 0 1 -8.091268,-3.54476 41.085896,3.2224231 0 0 1 38.848018,-1.91948 l -1.26187,3.2209 z" />
    <path
       style="fill:none;stroke-width:0"
       id="path2"
       d="m 155.21338,109.29385 a 43.234177,30.344484 0 0 1 -26.9964,28.123 43.234177,30.344484 0 0 1 -47.274873,-6.99828 43.234177,30.344484 0 0 1 -8.51434,-33.379781 43.234177,30.344484 0 0 1 40.879283,-18.075104 l -1.32785,30.330165 z" />
    <path
       style="fill:none;stroke-width:0"
       id="path3"
       d="M 107.4141,77.338158 A 41.891499,26.853525 0 0 1 81.256103,102.22576 41.891499,26.853525 0 0 1 35.449397,96.0326 41.891499,26.853525 0 0 1 27.199478,66.492968 41.891499,26.853525 0 0 1 66.809219,50.497301 l -1.286613,26.840857 z" />
    <path
       style="fill:none;stroke-width:0"
       id="path4"
       d="m 113.85895,127.28571 a 6.7133818,13.426764 0 0 1 -4.19199,12.44381 6.7133818,13.426764 0 0 1 -7.34082,-3.09659 6.7133818,13.426764 0 0 1 -1.3221,-14.76981 6.7133818,13.426764 0 0 1 6.34772,-7.99784 l -0.20619,13.42043 z" />
    <path
       style="fill:none;stroke-width:0.5;stroke-dasharray:none"
       id="path5"
       d="m 127.49402,138.44232 a 42.160034,9.6672697 0 0 1 -48.995763,3.22939 42.160034,9.6672697 0 0 1 -26.740949,-9.95238 42.160034,9.6672697 0 0 1 34.613315,-8.58221 l 7.34818,9.5193 z" />
    <path
       style="fill:none;stroke:#000000;stroke-width:0.499999;stroke-dasharray:none;stroke-opacity:1"
       id="path8"
       d="M 37.59493,176.15913 93.214093,140.07846 56.763799,74.585573 108.26582,116.333 159.2895,61.428296 135.50034,123.3103 l 67.98466,31.55991 -66.20454,-3.50225 -9.00684,74.4098 -17.1275,-64.04651 z" />
  </g>
</svg>
