  0
SECTION
  2
HEADER
  9
$ACADVER
  1
AC1009
  9
$EXTMAX
 10
-3.4737281799316
 20
2.5584487915039
 30
0.0
  9
$EXTMIN
 10
-13.0435800552368
 20
-2.5584487915039
 30
0.0
  9
$INSUNITS
 70
     4
  9
$LUNITS
 70
     2
  9
$LUPREC
 70
     4
  9
$MEASUREMENT
 70
     1
  0
ENDSEC
  0
SECTION
  2
TABLES
  0
TABLE
  2
LAYER
 70
     1
  0
LAYER
  2
0
 70
     0
 62
     7
  6
Continuous
  0
LAYER
  2
Layer1
 70
     0
 62
     7
  6
Continuous
  0
LAYER
  2
MorphSurface0001
 70
     0
 62
   140
  6
Continuous
  0
LAYER
  2
MorphSurface001
 70
     0
 62
   140
  6
Continuous
  0
ENDTAB
  0
TABLE
  2
APPID
 70
     1
  0
APPID
  2
ACAD
 70
     0
  0
ENDTAB
  0
ENDSEC
  0
SECTION
  2
ENTITIES
  0
POLYLINE
  8
Layer1
 66
     1
 10
0.0
 20
0.0
 30
0.0
 70
     9
  0
VERTEX
  8
Layer1
 10
-6.7292941629887
 20
0.551134827733
 30
0.9062490001321
 42
0.0
  0
VERTEX
  8
Layer1
 10
-8.382985919714
 20
-0.8653551914264
 30
0.9062490001321
 42
0.0
  0
VERTEX
  8
Layer1
 10
-6.7292941629887
 20
-0.398069985956
 30
0.9062490001321
 42
0.0
  0
VERTEX
  8
Layer1
 10
-6.4062526226044
 20
-2.5584487512708
 30
0.9062490001321
 42
0.0
  0
VERTEX
  8
Layer1
 10
-5.9072583880915
 20
-0.8726723743955
 30
0.9062490001321
 42
0.0
  0
VERTEX
  8
Layer1
 10
-3.9516231978231
 20
-1.6930936400001
 30
0.9062490001321
 42
0.0
  0
VERTEX
  8
Layer1
 10
-5.0852228522301
 20
-0.398069985956
 30
0.9062490001321
 42
0.0
  0
VERTEX
  8
Layer1
 10
-3.4737281322479
 20
0.8653551027179
 30
0.9062490001321
 42
0.0
  0
VERTEX
  8
Layer1
 10
-5.0852228522301
 20
0.551134827733
 30
0.9062490001321
 42
0.0
  0
VERTEX
  8
Layer1
 10
-5.4504621863365
 20
2.5584487512708
 30
0.906249000132
 42
0.0
  0
VERTEX
  8
Layer1
 10
-5.9072585076094
 20
1.0257371872664
 30
0.9062490001321
 42
0.0
  0
VERTEX
  8
Layer1
 10
-7.905091458559
 20
1.6930934593082
 30
0.906249000132
 42
0.0
  0
SEQEND
  0
POLYLINE
  8
Layer1
 66
     1
 10
0.0
 20
0.0
 30
0.0
 70
     0
  0
VERTEX
  8
Layer1
 10
-3.968
 20
1.84
 42
0.0322853137865
  0
VERTEX
  8
Layer1
 10
-3.9783591629354
 20
1.920936841077
 42
0.0292847904971
  0
VERTEX
  8
Layer1
 10
-3.9934251988173
 20
1.9806616339322
 42
0.0111751391097
  0
VERTEX
  8
Layer1
 10
-4.0
 20
2.0
 42
0.0318516131874
  0
VERTEX
  8
Layer1
 10
-4.0166577566905
 20
2.0404196185614
 42
0.0182851711077
  0
VERTEX
  8
Layer1
 10
-4.0262316784784
 20
2.0583742926084
 42
0.0584754646003
  0
VERTEX
  8
Layer1
 10
-4.0357256530593
 20
2.0697240297555
 42
0.0781110798496
  0
VERTEX
  8
Layer1
 10
-4.0461510094425
 20
2.0771136524668
 42
0.1260027104344
  0
VERTEX
  8
Layer1
 10
-4.060264325576
 20
2.0803492203521
 42
0.0331171351727
  0
VERTEX
  8
Layer1
 10
-4.064
 20
2.08
 42
0.1482662026901
  0
VERTEX
  8
Layer1
 10
-4.0781893842051
 20
2.0777376158855
 42
0.0853729089493
  0
VERTEX
  8
Layer1
 10
-4.0888559273283
 20
2.0696669610581
 42
0.059158521558
  0
VERTEX
  8
Layer1
 10
-4.0981874374703
 20
2.0565548402528
 42
0.0152167251991
  0
VERTEX
  8
Layer1
 10
-4.1028966427992
 20
2.0470593106169
 42
-0.019498893129
  0
VERTEX
  8
Layer1
 10
-4.128
 20
2.0
 42
0.0483542709581
  0
VERTEX
  8
Layer1
 10
-4.1382542994225
 20
1.9757287651874
 42
0.0252653002403
  0
VERTEX
  8
Layer1
 10
-4.1427809382776
 20
1.95805469357
 42
0.0
  0
VERTEX
  8
Layer1
 10
-4.1486485424011
 20
1.9340952831372
 42
-0.0798093924369
  0
VERTEX
  8
Layer1
 10
-4.1519921952825
 20
1.9258502524653
 42
-0.0881368924213
  0
VERTEX
  8
Layer1
 10
-4.1552607710624
 20
1.9219561301131
 42
-0.1648423269791
  0
VERTEX
  8
Layer1
 10
-4.1597145712115
 20
1.9200156860517
 42
0.0
  0
VERTEX
  8
Layer1
 10
-4.16
 20
1.92
 42
-0.0928163687581
  0
VERTEX
  8
Layer1
 10
-4.1675727777465
 20
1.9256374701165
 42
-0.0688442342271
  0
VERTEX
  8
Layer1
 10
-4.1749366818049
 20
1.936753740181
 42
-0.0510326255577
  0
VERTEX
  8
Layer1
 10
-4.1805
 20
1.95283203125
 42
-0.0517718675547
  0
VERTEX
  8
Layer1
 10
-4.186744140625
 20
1.9758788326383
 42
-0.0317109231054
  0
VERTEX
  8
Layer1
 10
-4.192
 20
2.0
 42
0.0
  0
SEQEND
  0
POLYLINE
  8
Layer1
 66
     1
 10
0.0
 20
0.0
 30
0.0
 70
     0
  0
VERTEX
  8
Layer1
 10
-11.8556624327026
 20
0.0833333333333
 42
0.1316524975874
  0
VERTEX
  8
Layer1
 10
-11.8333333333333
 20
0.2886751345948
 42
0.1316524975874
  0
VERTEX
  8
Layer1
 10
-12.0
 20
0.5
 42
0.1316524975874
  0
VERTEX
  8
Layer1
 10
-12.3333333333333
 20
0.5773502691896
 42
0.1316524975874
  0
VERTEX
  8
Layer1
 10
-12.721687836487
 20
0.4166666666667
 42
0.1316524975874
  0
VERTEX
  8
Layer1
 10
-13.0
 20
0.0
 42
0.1316524975874
  0
VERTEX
  8
Layer1
 10
-13.0103629710818
 20
-0.5833333333333
 42
0.1316524975874
  0
VERTEX
  8
Layer1
 10
-12.6666666666667
 20
-1.1547005383793
 42
0.1316524975874
  0
VERTEX
  8
Layer1
 10
-12.0
 20
-1.5
 42
0.1316524975874
  0
VERTEX
  8
Layer1
 10
-11.1666666666667
 20
-1.4433756729741
 42
0.1316524975874
  0
VERTEX
  8
Layer1
 10
-10.4122867597285
 20
-0.9166666666667
 42
0.1316524975874
  0
VERTEX
  8
Layer1
 10
-10.0
 20
0.0
 42
0.0
  0
SEQEND
  0
POLYLINE
  8
Layer1
 66
     1
 10
0.0
 20
0.0
 30
0.0
 70
     0
  0
VERTEX
  8
Layer1
 10
-10.72
 20
0.16
 42
0.0324148175369
  0
VERTEX
  8
Layer1
 10
-10.7461475380568
 20
0.2469283298804
 42
0.0453827639294
  0
VERTEX
  8
Layer1
 10
-10.7670226859259
 20
0.2879315098423
 42
0.132049760417
  0
VERTEX
  8
Layer1
 10
-10.8
 20
0.32
 42
0.4397801978396
  0
VERTEX
  8
Layer1
 10
-10.8268537585502
 20
0.3072368645565
 42
0.0
  0
VERTEX
  8
Layer1
 10
-10.8484588204429
 20
0.269719192149
 42
-0.1370539625673
  0
VERTEX
  8
Layer1
 10
-10.88
 20
0.24
 42
-0.3106601717799
  0
VERTEX
  8
Layer1
 10
-10.96
 20
0.24
 42
-0.1277926908131
  0
VERTEX
  8
Layer1
 10
-11.0009107632117
 20
0.2790746191324
 42
-0.069233273578
  0
VERTEX
  8
Layer1
 10
-11.0165599329281
 20
0.3032339113213
 42
0.0148643907974
  0
VERTEX
  8
Layer1
 10
-11.0252966811801
 20
0.3157337291567
 42
0.5040305492449
  0
VERTEX
  8
Layer1
 10
-11.04
 20
0.32
 42
0.1546351338322
  0
VERTEX
  8
Layer1
 10
-11.051391551927
 20
0.2808091342758
 42
0.0559650699919
  0
VERTEX
  8
Layer1
 10
-11.04
 20
0.16
 42
0.0
  0
SEQEND
  0
ENDSEC
  0
EOF
